<svg xmlns="http://www.w3.org/2000/svg" width="300" height="300" viewBox="0 0 300 300">
  <defs>
    <linearGradient id="grad1" x1="0%" y1="0%" x2="100%" y2="100%">
      <stop offset="0%" style="stop-color:rgb(0,255,255);stop-opacity:1" />
      <stop offset="100%" style="stop-color:rgb(0,0,255);stop-opacity:1" />
    </linearGradient>
  </defs>
  <g fill="url(#grad1)">
    <circle cx="50" cy="50" r="30" />
    <circle cx="150" cy="50" r="30" />
    <circle cx="250" cy="50" r="30" />
    <circle cx="50" cy="150" r="30" />
    <circle cx="150" cy="150" r="30" />
    <circle cx="250" cy="150" r="30" />
    <circle cx="50" cy="250" r="30" />
    <circle cx="150" cy="250" r="30" />
    <circle cx="250" cy="250" r="30" />
  </g>
  <line x1="50" y1="50" x2="150" y2="50" stroke="white" stroke-width="3" />
  <line x1="150" y1="50" x2="250" y2="50" stroke="white" stroke-width="3" />
  <line x1="50" y1="150" x2="150" y2="150" stroke="white" stroke-width="3" />
  <line x1="150" y1="150" x2="250" y2="150" stroke="white" stroke-width="3" />
  <line x1="50" y1="250" x2="150" y2="250" stroke="white" stroke-width="3" />
  <line x1="150" y1="250" x2="250" y2="250" stroke="white" stroke-width="3" />
  <line x1="50" y1="50" x2="50" y2="150" stroke="white" stroke-width="3" />
  <line x1="150" y1="50" x2="150" y2="150" stroke="white" stroke-width="3" />
  <line x1="250" y1="50" x2="250" y2="150" stroke="white" stroke-width="3" />
  <line x1="50" y1="150" x2="50" y2="250" stroke="white" stroke-width="3" />
  <line x1="150" y1="150" x2="150" y2="250" stroke="white" stroke-width="3" />
  <line x1="250" y1="150" x2="250" y2="250" stroke="white" stroke-width="3" />
</svg>
